<svg width="5" height="8" viewBox="0 0 5 8" version="1.1" xmlns="http://www.w3.org/2000/svg" xmlns:xlink="http://www.w3.org/1999/xlink">
<title>&#239;&#131;&#154;</title>
<desc>Created using Figma</desc>
<g id="Canvas" transform="translate(-17480 -5655)">
<rect x="17480" y="5655" width="5" height="8" fill="#E5E5E5"/>
<clipPath id="clip-0" clip-rule="evenodd">
<path d="M 17447 5399L 17818 5399L 17818 6259L 17447 6259L 17447 5399Z" fill="#FFFFFF"/>
</clipPath>
<g id="barra esquerda" clip-path="url(#clip-0)">
<path d="M 17447 5399L 17818 5399L 17818 6259L 17447 6259L 17447 5399Z" fill="#E5E5E5"/>
<g id="Rectangle 3.2">
<use xlink:href="#path0_fill" transform="translate(17456 5475)" fill="#FCFCFC"/>
</g>
<g id="root_pasta_fluxo">
<g id="&#239;&#131;&#154;">
<use xlink:href="#path1_fill" transform="translate(17480 5652)" fill="#333333"/>
</g>
</g>
</g>
</g>
<defs>
<path id="path0_fill" d="M 0 0L 344 0L 344 774L 0 774L 0 0Z"/>
<path id="path1_fill" d="M 4.5 7C 4.5 6.86719 4.44531 6.74219 4.35156 6.64844L 0.851562 3.14844C 0.757812 3.05469 0.632812 3 0.5 3C 0.226562 3 0 3.22656 0 3.5L 0 10.5C 0 10.7734 0.226562 11 0.5 11C 0.632812 11 0.757812 10.9453 0.851562 10.8516L 4.35156 7.35156C 4.44531 7.25781 4.5 7.13281 4.5 7Z"/>
</defs>
</svg>
