<?xml version="1.0" encoding="utf-8"?>
<!-- Generator: Adobe Illustrator 21.1.0, SVG Export Plug-In . SVG Version: 6.00 Build 0)  -->
<svg version="1.1" id="Layer_1" xmlns="http://www.w3.org/2000/svg" xmlns:xlink="http://www.w3.org/1999/xlink" x="0px" y="0px"
	 viewBox="0 0 303 243.4" style="enable-background:new 0 0 303 243.4;" xml:space="preserve">
<style type="text/css">
	.st0{fill:#F2F2F2;}
	.st1{fill:#FFFFFF;}
	.st2{fill:none;stroke:#D4D7DE;stroke-width:4;stroke-linecap:round;stroke-linejoin:round;stroke-miterlimit:10;}
	.st3{fill:#F2F4F9;stroke:#A6AAB5;stroke-width:4;stroke-linecap:round;stroke-linejoin:round;stroke-miterlimit:10;}
	.st4{fill:none;stroke:#EF3A4D;stroke-width:4;stroke-miterlimit:10;}
	.st5{fill:none;stroke:#A6AAB5;stroke-width:4;stroke-linecap:round;stroke-linejoin:round;stroke-miterlimit:10;}
	.st6{fill:#FFFFFF;stroke:#D4D7DE;stroke-width:4;stroke-linecap:round;stroke-linejoin:round;stroke-miterlimit:10;}
	.st7{fill:#A6AAB5;}
</style>
<g>
	<g>
		<path class="st0" d="M274.1,231.6H31.6c-1.7,0-3-1.3-3-3V30.5c0-1.7,1.3-3,3-3h242.4c1.7,0,3,1.3,3,3v198.1
			C277.1,230.2,275.7,231.6,274.1,231.6z"/>
		<rect x="18.9" y="50.1" class="st1" width="238.7" height="170"/>
		<rect x="18.9" y="47.4" class="st1" width="248.7" height="172.7"/>
		<rect x="207.9" y="47.4" class="st2" width="59.7" height="172.7"/>
		<g>
			<rect x="148.5" y="47.4" class="st2" width="59.7" height="172.7"/>
			
				<rect x="148.4" y="44.3" transform="matrix(-1.836970e-16 1 -1 -1.836970e-16 311.9304 -44.52)" class="st2" width="59.7" height="178.8"/>
			<rect x="88.8" y="47.4" class="st2" width="59.7" height="172.7"/>
		</g>
		<path class="st3" d="M18.9,21.5c0-2.2,1.8-4,4-4h240.9c2.1,0,3.8,1.5,3.8,3.4v26.5H18.9V21.5z"/>
		<line class="st4" x1="18.9" y1="47.4" x2="267.6" y2="47.4"/>
		<path class="st5" d="M18.9,21.5c0-2.2,1.8-4,4-4h240.9c2.1,0,3.8,1.5,3.8,3.4V220H18.9V21.5z"/>
	</g>
</g>
<path class="st6" d="M277.9,196.9h-79.2c-6.6,0-12-5.4-12-12v-47.9c0-6.6,5.4-12,12-12h79.2c6.6,0,12,5.4,12,12v47.9
	C289.9,191.5,284.5,196.9,277.9,196.9z"/>
<g>
	<circle class="st7" cx="215.3" cy="168.1" r="4.7"/>
	<circle class="st7" cx="239.8" cy="168.1" r="4.7"/>
	<circle class="st7" cx="264.2" cy="168.1" r="4.7"/>
</g>
</svg>
